<svg id="visual" viewBox="0 0 960 540" width="960" height="540" xmlns="http://www.w3.org/2000/svg" xmlns:xlink="http://www.w3.org/1999/xlink" version="1.1"><rect x="0" y="0" width="960" height="540" fill="#d5d5d5"></rect><defs><linearGradient id="grad1_0" x1="43.8%" y1="0%" x2="100%" y2="100%"><stop offset="14.444444444444446%" stop-color="#eaeaea" stop-opacity="1"></stop><stop offset="85.55555555555554%" stop-color="#eaeaea" stop-opacity="1"></stop></linearGradient></defs><defs><linearGradient id="grad1_1" x1="43.8%" y1="0%" x2="100%" y2="100%"><stop offset="14.444444444444446%" stop-color="#eaeaea" stop-opacity="1"></stop><stop offset="85.55555555555554%" stop-color="#d5d5d5" stop-opacity="1"></stop></linearGradient></defs><defs><linearGradient id="grad2_0" x1="0%" y1="0%" x2="56.3%" y2="100%"><stop offset="14.444444444444446%" stop-color="#eaeaea" stop-opacity="1"></stop><stop offset="85.55555555555554%" stop-color="#eaeaea" stop-opacity="1"></stop></linearGradient></defs><defs><linearGradient id="grad2_1" x1="0%" y1="0%" x2="56.3%" y2="100%"><stop offset="14.444444444444446%" stop-color="#d5d5d5" stop-opacity="1"></stop><stop offset="85.55555555555554%" stop-color="#eaeaea" stop-opacity="1"></stop></linearGradient></defs><g transform="translate(960, 0)"><path d="M0 486C-48 440.1 -96 394.2 -155.8 376C-215.5 357.8 -287.1 367.4 -340.1 340.1C-393.2 312.9 -427.8 248.8 -449 186C-470.2 123.2 -478.1 61.6 -486 0L0 0Z" fill="#dfdfdf"></path><path d="M0 243C-24 220 -48 197.1 -77.9 188C-107.8 178.9 -143.5 183.7 -170.1 170.1C-196.6 156.4 -213.9 124.4 -224.5 93C-235.1 61.6 -239.1 30.8 -243 0L0 0Z" fill="#eaeaea"></path></g><g transform="translate(0, 540)"><path d="M0 -486C69.7 -481.8 139.4 -477.7 182.2 -439.8C224.9 -401.9 240.6 -330.3 287.1 -287.1C333.5 -243.9 410.7 -229.1 449 -186C487.3 -142.9 486.6 -71.4 486 0L0 0Z" fill="#dfdfdf"></path><path d="M0 -243C34.9 -240.9 69.7 -238.8 91.1 -219.9C112.4 -200.9 120.3 -165.1 143.5 -143.5C166.8 -121.9 205.4 -114.5 224.5 -93C243.6 -71.4 243.3 -35.7 243 0L0 0Z" fill="#eaeaea"></path></g></svg>