<svg xmlns="http://www.w3.org/2000/svg" version="1.1" xmlns:xlink="http://www.w3.org/1999/xlink" xmlns:svgjs="http://svgjs.dev/svgjs" width="1000" height="285" viewBox="0 0 1000 285"><g transform="matrix(1,0,0,1,-0.6060582089526747,-0.138652936681126)"><svg viewBox="0 0 396 113" data-background-color="#ffffff" preserveAspectRatio="xMidYMid meet" height="285" width="1000" xmlns="http://www.w3.org/2000/svg" xmlns:xlink="http://www.w3.org/1999/xlink"><defs></defs><g id="tight-bounds" transform="matrix(1,0,0,1,0.2399990507452685,0.05497467314023652)"><svg viewBox="0 0 395.52 112.89005065371951" height="112.89005065371951" width="395.52"><g><svg viewBox="0 0 638.8109450079902 182.33060259936906" height="112.89005065371951" width="395.52"><g><rect width="7.604383238920883" height="182.33060259936906" x="215.77979936351727" y="0" fill="#283132" opacity="1" stroke-width="0" stroke="transparent" fill-opacity="1" class="rect-o-0" data-fill-palette-color="primary" rx="1%" id="o-0" data-palette-color="#283132"></rect></g><g transform="matrix(1,0,0,1,243.29094500799022,0.4535587129337415)"><svg viewBox="0 0 395.52 181.42348517350158" height="181.42348517350158" width="395.52"><g><svg viewBox="0 0 395.52 181.42348517350158" height="181.42348517350158" width="395.52"><g><svg viewBox="0 0 395.52 181.42348517350158" height="181.42348517350158" width="395.52"><g transform="matrix(1,0,0,1,0,0)"><svg width="395.52" viewBox="1.5099985599517822 -37.98999786376953 185.75 80.83000183105469" height="181.42348517350158" data-palette-color="#283132"><svg></svg><svg></svg><g class="undefined-text-0" data-fill-palette-color="primary" id="text-0"><path d="M34.52-11.57v0l-0.05 7.61c-1.493 0.293-2.973 0.57-4.44 0.83-1.467 0.267-2.947 0.497-4.44 0.69v0c-1.567 0.193-3.13 0.373-4.69 0.54-1.567 0.16-3.13 0.24-4.69 0.24v0c-0.453 0-1.12-0.017-2-0.05-0.88-0.033-1.793-0.097-2.74-0.19-0.94-0.1-1.833-0.223-2.68-0.37-0.847-0.147-1.467-0.333-1.86-0.56v0c-0.353-0.227-0.693-0.497-1.02-0.81-0.327-0.307-0.62-0.623-0.88-0.95v0c-0.687-0.847-1.257-1.773-1.71-2.78-0.453-1.013-0.81-2.057-1.07-3.13-0.26-1.073-0.45-2.163-0.57-3.27-0.113-1.107-0.17-2.197-0.17-3.27v0c0-1.3 0.073-2.65 0.22-4.05 0.147-1.4 0.383-2.783 0.71-4.15 0.327-1.367 0.76-2.687 1.3-3.96 0.533-1.267 1.19-2.437 1.97-3.51v0c0.227-0.293 0.52-0.653 0.88-1.08 0.36-0.42 0.72-0.73 1.08-0.93v0c0.873-0.487 1.857-0.893 2.95-1.22 1.093-0.327 2.223-0.577 3.39-0.75 1.173-0.18 2.337-0.31 3.49-0.39 1.16-0.087 2.227-0.13 3.2-0.13v0c1.86 0 3.717 0.107 5.57 0.32 1.853 0.213 3.66 0.58 5.42 1.1v0c-0.067 0.88-0.117 1.767-0.15 2.66-0.033 0.893-0.05 1.78-0.05 2.66v0c0 2.12 0.05 4.253 0.15 6.4v0c-1.467-0.553-2.997-0.953-4.59-1.2-1.593-0.24-3.173-0.36-4.74-0.36v0c-0.32 0-0.79 0.023-1.41 0.07-0.62 0.047-1.32 0.11-2.1 0.19-0.78 0.087-1.587 0.193-2.42 0.32-0.827 0.133-1.6 0.297-2.32 0.49-0.713 0.193-1.34 0.42-1.88 0.68-0.533 0.26-0.883 0.537-1.05 0.83v0c-0.127 0.26-0.23 0.627-0.31 1.1-0.087 0.473-0.153 0.97-0.2 1.49-0.047 0.52-0.08 1.023-0.1 1.51-0.013 0.493-0.02 0.887-0.02 1.18v0c0 0.293 0.033 0.877 0.1 1.75 0.06 0.88 0.14 1.817 0.24 2.81 0.1 0.993 0.223 1.897 0.37 2.71 0.147 0.813 0.3 1.287 0.46 1.42v0c0.16 0.093 0.43 0.15 0.81 0.17 0.373 0.013 0.623 0.02 0.75 0.02v0c1.6 0 3.31-0.08 5.13-0.24 1.82-0.167 3.667-0.387 5.54-0.66 1.873-0.28 3.72-0.573 5.54-0.88 1.827-0.307 3.52-0.607 5.08-0.9zM62.26-10.35l0.73 9.13c-3.873 0.293-7.723 0.57-11.55 0.83-3.827 0.26-7.677 0.503-11.55 0.73v0c-0.16-6.213-0.29-12.39-0.39-18.53-0.093-6.133-0.273-12.327-0.54-18.58v0c2.187-0.033 4.337-0.097 6.45-0.19 2.113-0.1 4.247-0.23 6.4-0.39v0c-0.36 2.407-0.693 4.823-1 7.25-0.313 2.427-0.55 4.86-0.71 7.3v0c-0.133 2.047-0.24 4.09-0.32 6.13-0.08 2.033-0.153 4.073-0.22 6.12v0c2.147 0.067 4.27 0.1 6.37 0.1 2.1 0 4.21 0.033 6.33 0.1zM107.67-20.85v0c0 0.427 0 0.843 0 1.25 0 0.407-0.017 0.803-0.05 1.19v0c-0.033 0.327-0.073 0.897-0.12 1.71-0.053 0.813-0.12 1.75-0.2 2.81-0.08 1.06-0.177 2.173-0.29 3.34-0.113 1.173-0.243 2.257-0.39 3.25-0.147 0.993-0.303 1.847-0.47 2.56-0.16 0.72-0.323 1.16-0.49 1.32v0c-0.973 0.98-2.137 1.703-3.49 2.17-1.347 0.473-2.753 0.793-4.22 0.96-1.467 0.16-2.933 0.223-4.4 0.19-1.46-0.033-2.827-0.05-4.1-0.05v0c-0.42 0-1.137-0.007-2.15-0.02-1.007-0.02-2.153-0.043-3.44-0.07-1.287-0.033-2.63-0.093-4.03-0.18-1.4-0.08-2.71-0.193-3.93-0.34-1.22-0.147-2.277-0.323-3.17-0.53-0.893-0.213-1.457-0.483-1.69-0.81v0c-0.26-0.36-0.487-0.75-0.68-1.17-0.193-0.427-0.373-0.833-0.54-1.22v0c-0.42-1.073-0.81-2.22-1.17-3.44-0.353-1.227-0.653-2.48-0.9-3.76-0.247-1.287-0.443-2.567-0.59-3.84-0.147-1.267-0.22-2.47-0.22-3.61v0c0-0.62 0.05-1.427 0.15-2.42 0.1-0.993 0.23-2.067 0.39-3.22 0.16-1.153 0.357-2.333 0.59-3.54 0.227-1.207 0.477-2.33 0.75-3.37 0.28-1.04 0.583-1.943 0.91-2.71 0.32-0.767 0.677-1.28 1.07-1.54v0c0.327-0.227 0.93-0.437 1.81-0.63 0.88-0.2 1.903-0.37 3.07-0.51 1.173-0.147 2.427-0.28 3.76-0.4 1.34-0.113 2.61-0.21 3.81-0.29 1.207-0.08 2.297-0.137 3.27-0.17 0.98-0.033 1.697-0.05 2.15-0.05v0c0.62 0 1.46 0.033 2.52 0.1 1.053 0.067 2.2 0.173 3.44 0.32 1.233 0.147 2.487 0.323 3.76 0.53 1.267 0.213 2.447 0.467 3.54 0.76 1.087 0.293 2.023 0.62 2.81 0.98 0.78 0.353 1.267 0.743 1.46 1.17v0c0.167 0.36 0.323 0.873 0.47 1.54 0.14 0.667 0.26 1.423 0.36 2.27 0.1 0.847 0.19 1.74 0.27 2.68 0.08 0.947 0.147 1.85 0.2 2.71 0.047 0.867 0.087 1.657 0.12 2.37 0.033 0.72 0.05 1.29 0.05 1.71zM98.93-19.24v0c0-0.647-0.033-1.337-0.1-2.07-0.067-0.733-0.28-1.377-0.64-1.93v0c-0.26-0.393-0.887-0.703-1.88-0.93-0.993-0.227-2.083-0.39-3.27-0.49-1.187-0.093-2.333-0.15-3.44-0.17-1.107-0.013-1.887-0.02-2.34-0.02v0c-0.36 0-0.987 0.03-1.88 0.09-0.9 0.067-1.847 0.173-2.84 0.32-0.993 0.147-1.91 0.327-2.75 0.54-0.847 0.213-1.37 0.467-1.57 0.76v0c-0.193 0.227-0.347 0.657-0.46 1.29-0.113 0.633-0.21 1.317-0.29 2.05-0.087 0.733-0.147 1.433-0.18 2.1-0.027 0.667-0.04 1.147-0.04 1.44v0c0 0.26 0.007 0.65 0.02 1.17 0.013 0.52 0.053 1.057 0.12 1.61 0.067 0.553 0.14 1.077 0.22 1.57 0.08 0.487 0.203 0.843 0.37 1.07v0c0.1 0.16 0.393 0.307 0.88 0.44 0.487 0.127 1.08 0.25 1.78 0.37 0.7 0.113 1.44 0.2 2.22 0.26 0.78 0.067 1.537 0.127 2.27 0.18 0.733 0.047 1.383 0.077 1.95 0.09 0.573 0.02 0.973 0.03 1.2 0.03v0c0.393 0 1.07-0.033 2.03-0.1 0.96-0.067 1.967-0.173 3.02-0.32 1.06-0.147 2.037-0.323 2.93-0.53 0.9-0.213 1.48-0.467 1.74-0.76v0c0.193-0.227 0.357-0.707 0.49-1.44 0.127-0.733 0.223-1.53 0.29-2.39 0.067-0.867 0.107-1.697 0.12-2.49 0.02-0.8 0.03-1.38 0.03-1.74zM152.2-15.72v0c0 2.86-0.01 5.683-0.03 8.47-0.013 2.78-0.037 5.603-0.07 8.47v0c-2.02-0.1-4.023-0.15-6.01-0.15v0c-0.973 0-1.957 0.05-2.95 0.15-0.993 0.1-1.977 0.23-2.95 0.39v0c-1.24-2.7-2.48-5.377-3.72-8.03-1.233-2.653-2.47-5.33-3.71-8.03v0c-0.907-1.987-1.767-3.973-2.58-5.96-0.813-1.987-1.63-3.99-2.45-6.01v0c-0.293 4.4-0.593 8.77-0.9 13.11-0.307 4.347-0.56 8.717-0.76 13.11v0l-10.54-0.29c-0.167-6.247-0.313-12.463-0.44-18.65-0.133-6.187-0.363-12.403-0.69-18.65v0l19.1-0.1c0.647 1.627 1.257 3.263 1.83 4.91 0.567 1.64 1.11 3.307 1.63 5v0c0.753 2.573 1.6 5.12 2.54 7.64 0.947 2.527 1.89 5.06 2.83 7.6v0c-0.027-4.073-0.1-8.127-0.22-12.16-0.113-4.04-0.2-8.11-0.26-12.21v0l9.86 1.17c0.127 3.387 0.24 6.757 0.34 10.11 0.1 3.353 0.15 6.723 0.15 10.11zM186.72-36.23l0.54 6.49c-3.193 0.167-6.36 0.34-9.5 0.52-3.14 0.173-6.307 0.393-9.5 0.66v0l-0.1 3.85 12.6-0.73c0.167 1.107 0.29 2.197 0.37 3.27 0.08 1.073 0.12 2.163 0.12 3.27v0c0 0.46-0.007 0.933-0.02 1.42-0.02 0.487-0.03 0.96-0.03 1.42v0l-11.72 2.1 0.73 6.05c2.48-0.16 4.947-0.397 7.4-0.71 2.46-0.307 4.943-0.573 7.45-0.8v0c0.227 1.627 0.453 3.26 0.68 4.9 0.227 1.647 0.553 3.25 0.98 4.81v0c-4.62-0.033-9.21-0.023-13.77 0.03-4.56 0.047-9.15 0.07-13.77 0.07v0c0.1-3.807 0.213-7.6 0.34-11.38 0.133-3.773 0.2-7.58 0.2-11.42v0-0.93c0-2.213-0.033-4.42-0.1-6.62-0.067-2.193-0.133-4.413-0.2-6.66v0c2.573 0.033 5.137 0.04 7.69 0.02 2.56-0.013 5.14-0.02 7.74-0.02v0c1.987 0 3.967 0.04 5.94 0.12 1.967 0.08 3.943 0.17 5.93 0.27z" data-fill-palette-color="primary" fill="#283132" opacity="1"></path><path d="M40.14 18.43v0c0 0.553-0.033 1.073-0.1 1.56-0.067 0.487-0.18 0.993-0.34 1.52v0c-0.2 0.553-0.577 1.08-1.13 1.58-0.553 0.507-1.17 0.98-1.85 1.42-0.687 0.44-1.387 0.813-2.1 1.12-0.72 0.313-1.323 0.55-1.81 0.71v0c0.167 0.033 0.493 0.09 0.98 0.17 0.487 0.08 1 0.187 1.54 0.32 0.533 0.127 1.03 0.28 1.49 0.46 0.453 0.18 0.747 0.367 0.88 0.56v0c0.227 0.393 0.413 0.873 0.56 1.44 0.147 0.573 0.25 1.177 0.31 1.81 0.067 0.633 0.117 1.253 0.15 1.86 0.033 0.6 0.05 1.127 0.05 1.58v0c0 0.167 0 0.34 0 0.52 0 0.173-0.017 0.343-0.05 0.51v0c-0.067 0.327-0.293 0.757-0.68 1.29-0.393 0.54-0.85 1.087-1.37 1.64-0.52 0.553-1.033 1.067-1.54 1.54-0.5 0.467-0.883 0.8-1.15 1v0c-0.353 0.26-0.703 0.487-1.05 0.68-0.34 0.193-0.703 0.373-1.09 0.54v0c-0.293 0.127-0.92 0.223-1.88 0.29-0.96 0.067-1.98 0.123-3.06 0.17-1.073 0.053-2.08 0.087-3.02 0.1-0.947 0.013-1.583 0.02-1.91 0.02v0c-2.6 0-5.17-0.04-7.71-0.12-2.54-0.08-5.113-0.187-7.72-0.32v0c0.067-2.307 0.117-4.607 0.15-6.9 0.033-2.3 0.05-4.62 0.05-6.96v0c0-2.64-0.083-5.26-0.25-7.86-0.16-2.607-0.337-5.213-0.53-7.82v0l-3.76-0.34c-0.167-1.3-0.29-2.577-0.37-3.83-0.08-1.253-0.187-2.517-0.32-3.79v0c2.673 0.067 5.343 0.133 8.01 0.2 2.673 0.067 5.343 0.133 8.01 0.2v0c1.14 0.027 2.59 0.13 4.35 0.31 1.753 0.18 3.55 0.417 5.39 0.71 1.84 0.293 3.583 0.65 5.23 1.07 1.64 0.427 2.933 0.9 3.88 1.42v0c0.713 0.393 1.307 0.98 1.78 1.76 0.473 0.78 0.857 1.633 1.15 2.56 0.293 0.927 0.503 1.863 0.63 2.81 0.133 0.947 0.2 1.777 0.2 2.49zM27.15 18.23v0c0-0.32-0.017-0.733-0.05-1.24-0.033-0.507-0.1-1.02-0.2-1.54-0.093-0.52-0.223-1.007-0.39-1.46-0.16-0.46-0.353-0.837-0.58-1.13v0c-0.067-0.093-0.247-0.173-0.54-0.24-0.293-0.067-0.61-0.117-0.95-0.15-0.34-0.033-0.673-0.05-1-0.05-0.327 0-0.54 0-0.64 0v0c-1.627 0-3.237 0.09-4.83 0.27-1.593 0.18-3.19 0.4-4.79 0.66v0c0.2 1.593 0.38 3.19 0.54 4.79 0.16 1.593 0.357 3.187 0.59 4.78v0c0.387 0 1.15-0.033 2.29-0.1 1.14-0.06 2.353-0.14 3.64-0.24 1.287-0.1 2.483-0.223 3.59-0.37 1.107-0.147 1.823-0.317 2.15-0.51v0c0.553-0.36 0.887-0.88 1-1.56 0.113-0.687 0.17-1.323 0.17-1.91zM26.76 32v0c0-0.487-0.067-0.98-0.2-1.48-0.127-0.507-0.387-0.923-0.78-1.25v0c-0.1-0.1-0.327-0.18-0.68-0.24-0.36-0.067-0.737-0.11-1.13-0.13-0.387-0.013-0.76-0.03-1.12-0.05-0.36-0.013-0.603-0.02-0.73-0.02v0c-1.4 0-2.783 0.073-4.15 0.22-1.367 0.147-2.733 0.3-4.1 0.46v0l0.78 6.21c0.16 0 0.543-0.017 1.15-0.05 0.6-0.033 1.3-0.077 2.1-0.13 0.793-0.047 1.637-0.103 2.53-0.17 0.9-0.06 1.74-0.14 2.52-0.24 0.78-0.1 1.447-0.207 2-0.32 0.553-0.113 0.897-0.25 1.03-0.41v0c0.293-0.36 0.497-0.737 0.61-1.13 0.113-0.387 0.17-0.81 0.17-1.27zM85.84 21.75v0c0 0.427 0 0.843 0 1.25 0 0.407-0.017 0.803-0.05 1.19v0c-0.033 0.327-0.073 0.897-0.12 1.71-0.047 0.813-0.113 1.75-0.2 2.81-0.08 1.06-0.177 2.173-0.29 3.34-0.113 1.173-0.243 2.257-0.39 3.25-0.147 0.993-0.3 1.847-0.46 2.56-0.167 0.72-0.33 1.16-0.49 1.32v0c-0.98 0.98-2.143 1.703-3.49 2.17-1.353 0.473-2.763 0.793-4.23 0.96-1.46 0.16-2.923 0.223-4.39 0.19-1.467-0.033-2.833-0.05-4.1-0.05v0c-0.427 0-1.143-0.007-2.15-0.02-1.013-0.02-2.16-0.043-3.44-0.07-1.287-0.033-2.63-0.093-4.03-0.18-1.4-0.08-2.71-0.193-3.93-0.34-1.22-0.147-2.28-0.323-3.18-0.53-0.893-0.213-1.453-0.483-1.68-0.81v0c-0.26-0.36-0.487-0.75-0.68-1.17-0.2-0.427-0.38-0.833-0.54-1.22v0c-0.427-1.073-0.817-2.22-1.17-3.44-0.36-1.227-0.663-2.48-0.91-3.76-0.24-1.287-0.433-2.567-0.58-3.84-0.147-1.267-0.22-2.47-0.22-3.61v0c0-0.62 0.047-1.427 0.14-2.42 0.1-0.993 0.23-2.067 0.39-3.22 0.167-1.153 0.363-2.333 0.59-3.54 0.227-1.207 0.48-2.33 0.76-3.37 0.273-1.04 0.573-1.943 0.9-2.71 0.327-0.767 0.683-1.28 1.07-1.54v0c0.327-0.227 0.93-0.437 1.81-0.63 0.88-0.2 1.907-0.37 3.08-0.51 1.173-0.147 2.427-0.28 3.76-0.4 1.333-0.113 2.603-0.21 3.81-0.29 1.2-0.08 2.29-0.137 3.27-0.17 0.973-0.033 1.69-0.05 2.15-0.05v0c0.613 0 1.45 0.033 2.51 0.1 1.06 0.067 2.207 0.173 3.44 0.32 1.24 0.147 2.493 0.323 3.76 0.53 1.273 0.213 2.453 0.467 3.54 0.76 1.093 0.293 2.03 0.62 2.81 0.98 0.78 0.353 1.27 0.743 1.47 1.17v0c0.16 0.36 0.313 0.873 0.46 1.54 0.147 0.667 0.27 1.423 0.37 2.27 0.093 0.847 0.18 1.74 0.26 2.68 0.087 0.947 0.153 1.85 0.2 2.71 0.047 0.867 0.087 1.657 0.12 2.37 0.033 0.72 0.05 1.29 0.05 1.71zM77.1 23.36v0c0-0.647-0.033-1.337-0.1-2.07-0.067-0.733-0.277-1.377-0.63-1.93v0c-0.26-0.393-0.887-0.703-1.88-0.93-0.993-0.227-2.083-0.39-3.27-0.49-1.193-0.093-2.343-0.15-3.45-0.17-1.107-0.013-1.887-0.02-2.34-0.02v0c-0.36 0-0.987 0.03-1.88 0.09-0.893 0.067-1.837 0.173-2.83 0.32-0.993 0.147-1.913 0.327-2.76 0.54-0.847 0.213-1.367 0.467-1.56 0.76v0c-0.2 0.227-0.357 0.657-0.47 1.29-0.113 0.633-0.21 1.317-0.29 2.05-0.08 0.733-0.137 1.433-0.17 2.1-0.033 0.667-0.05 1.147-0.05 1.44v0c0 0.26 0.007 0.65 0.02 1.17 0.02 0.52 0.063 1.057 0.13 1.61 0.06 0.553 0.133 1.077 0.22 1.57 0.08 0.487 0.2 0.843 0.36 1.07v0c0.1 0.16 0.393 0.307 0.88 0.44 0.487 0.127 1.08 0.25 1.78 0.37 0.7 0.113 1.443 0.2 2.23 0.26 0.78 0.067 1.537 0.127 2.27 0.18 0.727 0.047 1.377 0.077 1.95 0.09 0.567 0.02 0.967 0.03 1.2 0.03v0c0.387 0 1.06-0.033 2.02-0.1 0.96-0.067 1.97-0.173 3.03-0.32 1.06-0.147 2.037-0.323 2.93-0.53 0.893-0.213 1.47-0.467 1.73-0.76v0c0.193-0.227 0.357-0.707 0.49-1.44 0.133-0.733 0.23-1.53 0.29-2.39 0.067-0.867 0.11-1.697 0.13-2.49 0.013-0.8 0.02-1.38 0.02-1.74zM127.98 5.98v0c-2.507 3.093-4.99 6.16-7.45 9.2-2.453 3.047-5 6.067-7.64 9.06v0c1.853 3.027 3.807 6.007 5.86 8.94v0c1.107 1.56 2.247 3.097 3.42 4.61 1.173 1.513 2.36 3.037 3.56 4.57v0l-12.3 0.39c-1.073-1.86-2.18-3.677-3.32-5.45-1.14-1.773-2.247-3.587-3.32-5.44v0c-1.24 1.82-2.43 3.633-3.57 5.44-1.14 1.807-2.263 3.653-3.37 5.54v0c-0.713-0.127-1.443-0.2-2.19-0.22-0.753-0.013-1.503-0.02-2.25-0.02v0c-1.24 0-2.487 0.023-3.74 0.07-1.253 0.053-2.497 0.11-3.73 0.17v0l12.79-16.5c-0.747-1.24-1.487-2.46-2.22-3.66-0.733-1.207-1.473-2.413-2.22-3.62v0c-1.4-2.147-2.84-4.27-4.32-6.37-1.48-2.1-2.953-4.207-4.42-6.32v0c2.34 0.127 4.65 0.207 6.93 0.24 2.28 0.033 4.577 0.117 6.89 0.25v0c0.973 1.66 1.99 3.297 3.05 4.91 1.06 1.607 2.11 3.223 3.15 4.85v0c1.207-1.72 2.403-3.437 3.59-5.15 1.187-1.707 2.317-3.457 3.39-5.25v0c0.813 0.067 1.62 0.093 2.42 0.08 0.793-0.02 1.597-0.03 2.41-0.03v0c2.833 0 5.7-0.097 8.6-0.29z" data-fill-palette-color="primary" fill="#283132" opacity="1"></path></g></svg></g></svg></g></svg></g></svg></g><g transform="matrix(1,0,0,1,0,0.4535587129337415)"><svg viewBox="0 0 195.8730369579652 181.42348517350158" height="181.42348517350158" width="195.8730369579652"><g><svg version="1.1" xmlns="http://www.w3.org/2000/svg" xmlns:xlink="http://www.w3.org/1999/xlink" x="0" y="0" viewBox="0 0 100 92.62300109863281" enable-background="new 0 0 100 92.623" xml:space="preserve" width="195.8730369579652" height="181.42348517350158" class="icon-icon-0" data-fill-palette-color="accent" id="icon-0"><polygon fill="#283132" points="13.33,27.016 9.061,17.623 52.514,0 36.385,7.804 36.385,17.244 30.835,13.709 13.757,20.754 " data-fill-palette-color="accent"></polygon><polygon fill="#283132" points="38.662,10.935 38.662,18.904 51.755,27.016 51.755,18.05 " data-fill-palette-color="accent"></polygon><polygon fill="#283132" points="39.979,8.906 53.036,16.342 70.256,8.23 55.598,2.11 " data-fill-palette-color="accent"></polygon><polygon fill="#283132" points="54.459,17.907 54.459,26.162 71.252,17.054 71.252,9.796 " data-fill-palette-color="accent"></polygon><polygon fill="#283132" points="74.383,7.661 74.383,14.35 91.604,24.738 91.604,28.724 100,20.47 " data-fill-palette-color="accent"></polygon><polygon fill="#283132" points="30.835,16.342 50.189,28.724 33.823,35.555 15.465,22.319 " data-fill-palette-color="accent"></polygon><polygon fill="#283132" points="15.465,25.308 31.973,37.12 31.973,43.098 15.465,28.724 " data-fill-palette-color="accent"></polygon><polygon fill="#283132" points="34.108,37.689 51.755,30.146 51.755,36.693 34.108,44.236 " data-fill-palette-color="accent"></polygon><polygon fill="#283132" points="55.117,30.146 55.117,37.191 68.548,43.098 68.548,35.555 " data-fill-palette-color="accent"></polygon><polygon fill="#283132" points="55.117,27.918 69.378,33.942 87.357,25.451 74.549,17.979 " data-fill-palette-color="accent"></polygon><polygon fill="#283132" points="70.256,35.555 88.33,26.162 88.33,35.555 70.256,43.098 " data-fill-palette-color="accent"></polygon><polygon fill="#283132" points="53.463,38.259 65.702,44.236 44.07,53.06 35.247,45.659 " data-fill-palette-color="accent"></polygon><polygon fill="#283132" points="11.907,29.436 39.979,53.06 24.004,59.203 0,39.351 " data-fill-palette-color="accent"></polygon><polygon fill="#283132" points="47.628,53.771 91.271,37.191 94.592,52.585 56.594,68.999 " data-fill-palette-color="accent"></polygon><polygon fill="#283132" points="47.628,62.024 54.221,72.623 89.469,58.04 89.469,74.406 47.628,92.623 " data-fill-palette-color="accent"></polygon><polygon fill="#283132" points="43.928,55.337 43.928,92.054 15.465,71.987 15.465,56.001 23.326,62.297 " data-fill-palette-color="accent"></polygon></svg></g></svg></g></svg></g></svg><rect width="395.52" height="112.89005065371951" fill="none" stroke="none" visibility="hidden"></rect></g></svg></g></svg>